
	<svg xmlns="http://www.w3.org/2000/svg" xmlns:xlink="http://www.w3.org/1999/xlink" version="1.1" width="128" height="128" viewBox="0 0 100 100">


		<defs>
			<g id="background">
<path fill="url(#background-gradient)" stroke="none" d=" M 97.2 2.8 Q 94.35 0 90.6 0 L 9.4 0 Q 5.55 0 2.8 2.8 0 5.55 0 9.4 L 0 90.6 Q 0 94.35 2.8 97.2 5.55 100 9.4 100 L 90.6 100 Q 94.35 100 97.2 97.2 100 94.35 100 90.6 L 100 9.4 Q 100 5.55 97.2 2.8 Z"/>
</g><g id="bottom-1">
<path fill="#FFFFFF" fill-opacity="0.30196078431372547" stroke="none" d=" M 90.6 2.35 Q 94.45 2.35 97.3 5.05 99.9 7.65 100 11.55 L 100 9.4 Q 100 5.4 97.3 2.7 94.45 0 90.6 0 L 9.4 0 Q 5.4 0 2.7 2.7 0 5.4 0 9.4 L 0 11.55 Q 0.1 7.65 2.7 5.05 5.4 2.35 9.4 2.35 L 90.6 2.35 Z"/>
</g><mask id="mask">
<path fill="#FFFFFF" stroke="none" d=" M 97.2 2.8 Q 94.35 0 90.6 0 L 9.4 0 Q 5.55 0 2.8 2.8 0 5.55 0 9.4 L 0 90.6 Q 0 94.35 2.8 97.2 5.55 100 9.4 100 L 90.6 100 Q 94.35 100 97.2 97.2 100 94.35 100 90.6 L 100 9.4 Q 100 5.55 97.2 2.8 Z"/>
</mask>
			
	<linearGradient id="background-gradient" x1="0" y1="0" y2="1" x2="0" >
		<stop stop-color="#363636" offset="0%"/>
		<stop stop-color="#0d0d0d" offset="100%"/>
	</linearGradient>

			
			
			<g transform="scale(3.125)" id="picture"><path d="M27.7 20.3c-.4-.4-1-.3-1.4.1l-4.8 5.2-1.8-1.9c-.4-.4-1-.4-1.4-.1-.4.4-.4 1-.1 1.4l2.5 2.7c.2.2.5.3.7.3s.5-.1.7-.3l5.5-6c.5-.4.5-1.1.1-1.4z M24 14.1V9.5c0-.3-.1-.5-.3-.7L15.5.3c-.2-.2-.4-.3-.7-.3H1C.4 0 0 .4 0 1v30c0 .6.4 1 1 1h22c5 0 9-4 9-9 0-4.6-3.5-8.4-8-8.9zM21.1 9H15V2.7L21.1 9zM2 30V2h11v8c0 .6.4 1 1 1h8v3.1c-4.5.5-8 4.3-8 8.9 0 2.8 1.3 5.3 3.4 7H2zm21 0c-3.9 0-7-3.1-7-7s3.1-7 7-7 7 3.1 7 7-3.1 7-7 7z"/></g>
			
	<linearGradient id="picture-gradient" x1="0" y1="0" y2="1" x2="0" >
		<stop stop-color="#ffffff" offset="100%"/>
	</linearGradient>

		</defs>

		

			<use xlink:href="#background" fill="url(#background-gradient)" />

		

			<g mask="url(#mask)">
				<g transform="
				        translate(
                                50 50
)
                            translate(0 0)  scale(0.55)  
                            translate(
                                -50 -50
)">
						<use xlink:href="#picture" fill="url(#picture-gradient)"  />
				</g>
			</g>

		<use xlink:href="#bottom-1" />



	</svg>
